<svg width="307" height="259" xmlns="http://www.w3.org/2000/svg">

 <g>
  <title>Layer 1</title>
  <g id="svg_20">
   <path stroke="#000" id="svg_14" d="m29.48682,49.20508l0,0c0,-13.25483 10.74517,-24 24.00001,-24l0,0c6.36519,0 12.46968,2.52856 16.97056,7.02944c4.50087,4.50087 7.02943,10.60537 7.02943,16.97056l0,0c0,13.25484 -10.74516,24 -23.99999,24l0,0c-13.25484,0 -24.00001,-10.74517 -24.00001,-24zm24.00001,-24l0,48m-24.00001,-24l48,0" stroke-width="0" fill="#1c1c19"/>
   <path stroke="#000" id="svg_17" d="m29.48682,131.246l0,0c0,-13.25483 10.74517,-24 24.00001,-24l0,0c6.36519,0 12.46968,2.52856 16.97056,7.02944c4.50087,4.50087 7.02943,10.60537 7.02943,16.97056l0,0c0,13.25484 -10.74516,24 -23.99999,24l0,0c-13.25484,0 -24.00001,-10.74517 -24.00001,-24zm24.00001,-24l0,48m-24.00001,-24l48,0" stroke-width="0" fill="#1c1c19"/>
   <path stroke="#000" id="svg_12" d="m29.48682,209.79492l0,0c0,-13.25483 10.74517,-24 24.00001,-24l0,0c6.36519,0 12.46968,2.52856 16.97056,7.02944c4.50087,4.50087 7.02943,10.60537 7.02943,16.97056l0,0c0,13.25484 -10.74516,24 -23.99999,24l0,0c-13.25484,0 -24.00001,-10.74517 -24.00001,-24zm24.00001,-24l0,48m-24.00001,-24l48,0" stroke-width="0" fill="#1c1c19"/>
   <path stroke="#000" id="svg_15" d="m130.49145,49.20508l0,0c0,-13.25483 10.74517,-24 24.00001,-24l0,0c6.36519,0 12.46968,2.52856 16.97056,7.02944c4.50087,4.50087 7.02943,10.60537 7.02943,16.97056l0,0c0,13.25484 -10.74516,24 -23.99999,24l0,0c-13.25484,0 -24.00001,-10.74517 -24.00001,-24zm24.00001,-24l0,48m-24.00001,-24l48,0" stroke-width="0" fill="#1c1c19"/>
   <path stroke="#000" id="svg_18" d="m130.49145,131.246l0,0c0,-13.25483 10.74517,-24 24.00001,-24l0,0c6.36519,0 12.46968,2.52856 16.97056,7.02944c4.50087,4.50087 7.02943,10.60537 7.02943,16.97056l0,0c0,13.25484 -10.74516,24 -23.99999,24l0,0c-13.25484,0 -24.00001,-10.74517 -24.00001,-24zm24.00001,-24l0,48m-24.00001,-24l48,0" stroke-width="0" fill="#1c1c19"/>
   <path stroke="#000" id="svg_13" d="m130.49145,209.79492l0,0c0,-13.25483 10.74517,-24 24.00001,-24l0,0c6.36519,0 12.46968,2.52856 16.97056,7.02944c4.50087,4.50087 7.02943,10.60537 7.02943,16.97056l0,0c0,13.25484 -10.74516,24 -23.99999,24l0,0c-13.25484,0 -24.00001,-10.74517 -24.00001,-24zm24.00001,-24l0,48m-24.00001,-24l48,0" stroke-width="0" fill="#1c1c19"/>
   <path stroke="#000" id="svg_16" d="m229.51319,131.246l0,0c0,-13.25483 10.74517,-24 24,-24l0,0c6.3652,0 12.46969,2.52856 16.97056,7.02944c4.50088,4.50087 7.02944,10.60537 7.02944,16.97056l0,0c0,13.25484 -10.74517,24 -24,24l0,0c-13.25483,0 -24,-10.74517 -24,-24zm24,-24l0,48m-24,-24l48,0" stroke-width="0" fill="#1c1c19"/>
   <path stroke="#000" id="svg_19" d="m229.51319,209.79492l0,0c0,-13.25484 10.74517,-24.00001 24,-24.00001l0,0c6.3652,0 12.46969,2.52857 16.97056,7.02944c4.50088,4.50088 7.02944,10.60537 7.02944,16.97057l0,0c0,13.25483 -10.74517,24 -24,24l0,0c-13.25483,0 -24,-10.74517 -24,-24zm24,-24.00001l0,48.00001m-24,-24l48,0" stroke-width="0" fill="#1c1c19"/>
   <path stroke="#000" id="svg_10" d="m229.51319,49.20508l0,0c0,-13.25484 10.74517,-24 24,-24l0,0c6.36519,0 12.46969,2.52856 16.97056,7.02944c4.50087,4.50087 7.02943,10.60537 7.02943,16.97056l0,0c0,13.25483 -10.74516,24 -24,24l0,0c-13.25484,0 -24,-10.74517 -24,-24zm24,-24l0,48m-24,-24l48,0" stroke-width="0" fill="#1c1c19"/>
  </g>
 </g>
</svg>