<svg width="32" height="32" xmlns="http://www.w3.org/2000/svg" data-name="Layer 1">

 <g>
  <title>Layer 1</title>
  <ellipse ry="15.52076" rx="15.52076" id="svg_5" cy="16" cx="16" fill="#f4f4f4"/>
  <g stroke="null" id="svg_13">
   <path stroke="null" id="svg_8" d="m17.23226,6.83598c0,0 13.07514,-2.45767 13.49902,-2.46084c0.858,0.08245 0.34525,21.01244 0,21.64336c-1.28188,0.47898 -13.58447,3.88788 -13.58789,3.8847c0.00342,0.00317 0.08888,-23.06722 0.08888,-23.06722z" fill="#4285f4"/>
   <path stroke="null" id="svg_12" d="m3.50766,3.20721c0,0 2.10595,-0.68153 3.03023,-0.79026c0.92428,-0.10874 3.47888,0.0794 4.64458,0.54477c1.1657,0.46537 2.81844,1.55035 2.98154,2.90958c-0.05437,1.30486 1.03949,-0.06084 1.98771,-0.62848c0.73075,-0.89385 1.43754,-1.27444 2.19871,-1.65502c0.76117,-0.38058 3.58836,-0.86991 3.56442,-0.90033c0.02395,0.03042 3.06862,-0.4589 3.04467,-0.48932c0.02395,0.03042 1.76376,-0.35016 2.5793,0.19353c0.81554,0.54369 1.30486,2.01166 1.28091,1.98124c0.02395,0.03042 -11.50231,2.64014 -11.52625,2.60972c0.02395,0.03042 -3.72752,-0.02395 -3.75147,-0.05437c0.02395,0.03042 -10.03434,-3.72105 -10.03434,-3.72105z" opacity="NaN" fill="#cbdef2"/>
   <path stroke="null" id="svg_7" d="m13.81392,7.00098c0,0 -11.36597,-4.2561 -12.13852,-3.70754c-1.44937,0.79132 -0.85117,21.59893 0,22.22631c-0.50933,-0.39093 12.13852,4.33807 12.1351,4.33492c0.00342,0.00315 0.00342,-22.85369 0.00342,-22.85369z" fill="#00ac47"/>
   <path stroke="null" id="svg_10" d="m2.93378,2.88285l10.94405,4.13284l-0.25119,0.64273l-11.70889,-4.33021l1.01604,-0.44535z" opacity="undefined" fill="#fbc02d"/>
   <path stroke="null" id="svg_6" d="m13.64336,7.34769c0,0 0,22.49915 -0.00378,22.49486c0.00378,0.00429 3.68443,0.00309 3.68065,0c0.00378,0 0.00378,-22.59811 0,-22.65258c0,0.05432 -3.67688,-0.38719 -3.67688,0.15772z" fill="#ea4435"/>
   <rect stroke="null" id="svg_9" height="0.70975" width="3.80529" y="6.95868" x="13.61373" fill="#fbc02d"/>
   <path stroke="null" id="svg_11" d="m17.10271,6.98413l13.27631,-3.19216l0.24249,0.58341l-13.35995,3.32099l-0.15884,-0.71223z" opacity="undefined" fill="#fbc02d"/>
  </g>
 </g>
</svg>