<svg width="307" height="259" xmlns="http://www.w3.org/2000/svg">
 <g>
  <title>Layer 1</title>
  <ellipse fill="#ededed" stroke="#000" stroke-width="0" cx="153.50001" cy="129.5" id="svg_5" rx="121" ry="121"/>
  <g id="svg_13">
   <rect fill="#ebbb4e" stroke="#000" stroke-width="0" x="55.37615" y="106.70262" width="103" height="41" id="svg_9"/>
   <rect fill="#58a55c" stroke="#000" stroke-width="0" x="106.18574" y="142.08355" width="103" height="41" id="svg_10" transform="rotate(90 157.686 162.584)"/>
   <path fill="#d95040" stroke-width="0" opacity="NaN" d="m136.886,149.1786c0,0 0,-103.80956 -0.15395,-104.26216c0.15395,0.4526 41.13899,0.45369 40.96396,0c0.19002,0 0.15395,65.3937 0,65.23743c0,0.13909 -40.81001,39.02473 -40.81001,39.02473z" id="svg_11" stroke="#000"/>
   <path fill="#4e86ec" stroke-width="0" opacity="NaN" d="m136.42408,148.22623c0,0 42.35923,-39.04722 42.19832,-39.50091c0.16091,0.45369 73.04269,0.45369 72.87609,0c0.17329,0 0.16091,38.74339 0,38.57104c0,0.1491 -115.07441,0.92988 -115.07441,0.92988l0,-0.00001z" id="svg_12" stroke="#000"/>
  </g>
 </g>

</svg>